<mxfile host="app.diagrams.net" modified="2022-07-11T05:40:35.764Z" agent="5.0 (Macintosh; Intel Mac OS X 10_15_7) AppleWebKit/537.36 (KHTML, like Gecko) Chrome/103.0.0.0 Safari/537.36" etag="swrFN9SO5bx-bi38PYmu" version="20.0.4" type="github">
  <diagram id="6I0OCvxSQrVGMHxT2VVA" name="Page-1">
    <mxGraphModel dx="946" dy="589" grid="1" gridSize="10" guides="1" tooltips="1" connect="1" arrows="1" fold="1" page="1" pageScale="1" pageWidth="850" pageHeight="1100" math="0" shadow="0">
      <root>
        <mxCell id="0" />
        <mxCell id="1" parent="0" />
        <mxCell id="ShqAhk9DvxXDbeEFSma--2" value="" style="rounded=0;whiteSpace=wrap;html=1;" vertex="1" parent="1">
          <mxGeometry x="50" y="310" width="550" height="290" as="geometry" />
        </mxCell>
        <mxCell id="ShqAhk9DvxXDbeEFSma--12" value="" style="rounded=0;whiteSpace=wrap;html=1;dashed=1;" vertex="1" parent="1">
          <mxGeometry x="90" y="420" width="470" height="160" as="geometry" />
        </mxCell>
        <mxCell id="ShqAhk9DvxXDbeEFSma--4" style="edgeStyle=orthogonalEdgeStyle;rounded=0;orthogonalLoop=1;jettySize=auto;html=1;exitX=0.5;exitY=1;exitDx=0;exitDy=0;exitPerimeter=0;" edge="1" parent="1" source="ShqAhk9DvxXDbeEFSma--1" target="ShqAhk9DvxXDbeEFSma--3">
          <mxGeometry relative="1" as="geometry" />
        </mxCell>
        <mxCell id="ShqAhk9DvxXDbeEFSma--1" value="" style="points=[[0.02,0.015,0],[0.5,0,0],[0.98,0.015,0],[1,0.38,0],[0.895,0.98,0],[0.5,1,0],[0.105,0.98,0],[0,0.38,0]];verticalLabelPosition=bottom;sketch=0;html=1;verticalAlign=top;aspect=fixed;align=center;pointerEvents=1;shape=mxgraph.cisco19.secure_endpoint_pc;fillColor=#005073;strokeColor=none;" vertex="1" parent="1">
          <mxGeometry x="300" y="160" width="50" height="40" as="geometry" />
        </mxCell>
        <mxCell id="ShqAhk9DvxXDbeEFSma--5" style="edgeStyle=orthogonalEdgeStyle;rounded=0;orthogonalLoop=1;jettySize=auto;html=1;exitX=0.5;exitY=1;exitDx=0;exitDy=0;entryX=0.5;entryY=0;entryDx=0;entryDy=0;" edge="1" parent="1" source="ShqAhk9DvxXDbeEFSma--3" target="ShqAhk9DvxXDbeEFSma--2">
          <mxGeometry relative="1" as="geometry" />
        </mxCell>
        <mxCell id="ShqAhk9DvxXDbeEFSma--3" value="http://172.18.20.57:30001" style="text;html=1;strokeColor=none;fillColor=none;align=center;verticalAlign=middle;whiteSpace=wrap;rounded=0;" vertex="1" parent="1">
          <mxGeometry x="295" y="230" width="60" height="30" as="geometry" />
        </mxCell>
        <mxCell id="ShqAhk9DvxXDbeEFSma--7" value="172.18.20.57 为 node 节点 外网 地址" style="text;html=1;strokeColor=none;fillColor=none;align=center;verticalAlign=middle;whiteSpace=wrap;rounded=0;" vertex="1" parent="1">
          <mxGeometry x="420" y="170" width="210" height="70" as="geometry" />
        </mxCell>
        <mxCell id="ShqAhk9DvxXDbeEFSma--8" value="Node:&lt;span style=&quot;font-variant-ligatures: no-common-ligatures; font-family: Menlo; font-size: 11px; text-align: start; background-color: initial;&quot;&gt;192.168.65.4:80&lt;/span&gt;" style="text;html=1;strokeColor=none;fillColor=none;align=center;verticalAlign=middle;whiteSpace=wrap;rounded=0;" vertex="1" parent="1">
          <mxGeometry x="96" y="320" width="60" height="30" as="geometry" />
        </mxCell>
        <mxCell id="ShqAhk9DvxXDbeEFSma--9" value="" style="rounded=0;whiteSpace=wrap;html=1;dashed=1;" vertex="1" parent="1">
          <mxGeometry x="265" y="340" width="120" height="60" as="geometry" />
        </mxCell>
        <mxCell id="ShqAhk9DvxXDbeEFSma--10" value="NodePort:30001" style="text;html=1;strokeColor=none;fillColor=none;align=center;verticalAlign=middle;whiteSpace=wrap;rounded=0;dashed=1;" vertex="1" parent="1">
          <mxGeometry x="295" y="340" width="60" height="30" as="geometry" />
        </mxCell>
        <mxCell id="ShqAhk9DvxXDbeEFSma--31" style="rounded=0;orthogonalLoop=1;jettySize=auto;html=1;exitX=0.5;exitY=1;exitDx=0;exitDy=0;entryX=0.5;entryY=0;entryDx=0;entryDy=0;entryPerimeter=0;" edge="1" parent="1" source="ShqAhk9DvxXDbeEFSma--11" target="ShqAhk9DvxXDbeEFSma--18">
          <mxGeometry relative="1" as="geometry" />
        </mxCell>
        <mxCell id="ShqAhk9DvxXDbeEFSma--32" style="edgeStyle=none;rounded=0;orthogonalLoop=1;jettySize=auto;html=1;exitX=0.5;exitY=1;exitDx=0;exitDy=0;entryX=0.5;entryY=0;entryDx=0;entryDy=0;entryPerimeter=0;" edge="1" parent="1" source="ShqAhk9DvxXDbeEFSma--11" target="ShqAhk9DvxXDbeEFSma--19">
          <mxGeometry relative="1" as="geometry" />
        </mxCell>
        <mxCell id="ShqAhk9DvxXDbeEFSma--33" style="edgeStyle=none;rounded=0;orthogonalLoop=1;jettySize=auto;html=1;exitX=0.5;exitY=1;exitDx=0;exitDy=0;entryX=0.5;entryY=0;entryDx=0;entryDy=0;entryPerimeter=0;" edge="1" parent="1" source="ShqAhk9DvxXDbeEFSma--11" target="ShqAhk9DvxXDbeEFSma--20">
          <mxGeometry relative="1" as="geometry" />
        </mxCell>
        <mxCell id="ShqAhk9DvxXDbeEFSma--11" value="Service:80/8080" style="text;html=1;strokeColor=none;fillColor=none;align=center;verticalAlign=middle;whiteSpace=wrap;rounded=0;dashed=1;" vertex="1" parent="1">
          <mxGeometry x="295" y="370" width="60" height="30" as="geometry" />
        </mxCell>
        <mxCell id="ShqAhk9DvxXDbeEFSma--18" value="" style="verticalLabelPosition=bottom;verticalAlign=top;html=1;shape=mxgraph.basic.patternFillRect;fillStyle=diag;step=5;fillStrokeWidth=0.2;fillStrokeColor=#dddddd;dashed=1;" vertex="1" parent="1">
          <mxGeometry x="100" y="459" width="130" height="90" as="geometry" />
        </mxCell>
        <mxCell id="ShqAhk9DvxXDbeEFSma--19" value="" style="verticalLabelPosition=bottom;verticalAlign=top;html=1;shape=mxgraph.basic.patternFillRect;fillStyle=diag;step=5;fillStrokeWidth=0.2;fillStrokeColor=#dddddd;dashed=1;" vertex="1" parent="1">
          <mxGeometry x="260" y="459" width="130" height="90" as="geometry" />
        </mxCell>
        <mxCell id="ShqAhk9DvxXDbeEFSma--20" value="" style="verticalLabelPosition=bottom;verticalAlign=top;html=1;shape=mxgraph.basic.patternFillRect;fillStyle=diag;step=5;fillStrokeWidth=0.2;fillStrokeColor=#dddddd;dashed=1;" vertex="1" parent="1">
          <mxGeometry x="417" y="459" width="130" height="90" as="geometry" />
        </mxCell>
        <mxCell id="ShqAhk9DvxXDbeEFSma--21" value="" style="shape=mxgraph.cisco.computers_and_peripherals.macintosh;html=1;pointerEvents=1;dashed=0;fillColor=#036897;strokeColor=#ffffff;strokeWidth=2;verticalLabelPosition=bottom;verticalAlign=top;align=center;outlineConnect=0;" vertex="1" parent="1">
          <mxGeometry x="143" y="486" width="44" height="28" as="geometry" />
        </mxCell>
        <mxCell id="ShqAhk9DvxXDbeEFSma--22" value="Pod" style="text;html=1;strokeColor=none;fillColor=none;align=center;verticalAlign=middle;whiteSpace=wrap;rounded=0;dashed=1;" vertex="1" parent="1">
          <mxGeometry x="101" y="460" width="60" height="30" as="geometry" />
        </mxCell>
        <mxCell id="ShqAhk9DvxXDbeEFSma--23" value="Pod" style="text;html=1;strokeColor=none;fillColor=none;align=center;verticalAlign=middle;whiteSpace=wrap;rounded=0;dashed=1;" vertex="1" parent="1">
          <mxGeometry x="260" y="460" width="60" height="30" as="geometry" />
        </mxCell>
        <mxCell id="ShqAhk9DvxXDbeEFSma--24" value="Pod" style="text;html=1;strokeColor=none;fillColor=none;align=center;verticalAlign=middle;whiteSpace=wrap;rounded=0;dashed=1;" vertex="1" parent="1">
          <mxGeometry x="417" y="460" width="60" height="30" as="geometry" />
        </mxCell>
        <mxCell id="ShqAhk9DvxXDbeEFSma--25" value="" style="shape=mxgraph.cisco.computers_and_peripherals.macintosh;html=1;pointerEvents=1;dashed=0;fillColor=#036897;strokeColor=#ffffff;strokeWidth=2;verticalLabelPosition=bottom;verticalAlign=top;align=center;outlineConnect=0;" vertex="1" parent="1">
          <mxGeometry x="303" y="486" width="44" height="28" as="geometry" />
        </mxCell>
        <mxCell id="ShqAhk9DvxXDbeEFSma--26" value="" style="shape=mxgraph.cisco.computers_and_peripherals.macintosh;html=1;pointerEvents=1;dashed=0;fillColor=#036897;strokeColor=#ffffff;strokeWidth=2;verticalLabelPosition=bottom;verticalAlign=top;align=center;outlineConnect=0;" vertex="1" parent="1">
          <mxGeometry x="460" y="480" width="44" height="28" as="geometry" />
        </mxCell>
        <mxCell id="ShqAhk9DvxXDbeEFSma--27" value="Container:8080" style="text;html=1;strokeColor=none;fillColor=none;align=center;verticalAlign=middle;whiteSpace=wrap;rounded=0;dashed=1;" vertex="1" parent="1">
          <mxGeometry x="135" y="519" width="60" height="30" as="geometry" />
        </mxCell>
        <mxCell id="ShqAhk9DvxXDbeEFSma--28" value="Container:8080" style="text;html=1;strokeColor=none;fillColor=none;align=center;verticalAlign=middle;whiteSpace=wrap;rounded=0;dashed=1;" vertex="1" parent="1">
          <mxGeometry x="291" y="519" width="60" height="30" as="geometry" />
        </mxCell>
        <mxCell id="ShqAhk9DvxXDbeEFSma--29" value="Container:8080" style="text;html=1;strokeColor=none;fillColor=none;align=center;verticalAlign=middle;whiteSpace=wrap;rounded=0;dashed=1;" vertex="1" parent="1">
          <mxGeometry x="452" y="519" width="60" height="30" as="geometry" />
        </mxCell>
      </root>
    </mxGraphModel>
  </diagram>
</mxfile>
